<svg width="18" height="18" viewBox="0 0 18 18" fill="none" xmlns="http://www.w3.org/2000/svg">
<path fill-rule="evenodd" clip-rule="evenodd" d="M8.39396 0.204568C8.75195 -0.0681894 9.24805 -0.0681894 9.60604 0.204568L17.606 6.29981C17.8543 6.48895 18 6.78315 18 7.09524V17C18 17.5523 17.5523 18 17 18H11.4C10.8477 18 10.4 17.5523 10.4 17V12.6667H7.6V17C7.6 17.5523 7.15228 18 6.6 18H1C0.447715 18 0 17.5523 0 17V7.09524C0 6.78315 0.145708 6.48895 0.393957 6.29981L8.39396 0.204568ZM2 7.59051V16H5.6V11.6667C5.6 11.1144 6.04772 10.6667 6.6 10.6667H11.4C11.9523 10.6667 12.4 11.1144 12.4 11.6667V16H16V7.59051L9 2.25718L2 7.59051Z" fill="#81818A"/>
</svg>
