<svg width="20" height="20" viewBox="0 0 20 20" fill="none" xmlns="http://www.w3.org/2000/svg">
<g clip-path="url(#clip0)">
<path fill-rule="evenodd" clip-rule="evenodd" d="M2.45454 3.54541C2.45454 2.99313 2.90226 2.54541 3.45454 2.54541H18.1818C18.4979 2.54541 18.7954 2.69487 18.9841 2.94848C19.1728 3.20209 19.2305 3.52998 19.1396 3.83276L16.6851 12.0146C16.5582 12.4376 16.1689 12.7272 15.7273 12.7272H3.45454C2.90226 12.7272 2.45454 12.2795 2.45454 11.7272C2.45454 11.1749 2.90226 10.7272 3.45454 10.7272H14.9832L16.8378 4.54541H3.45454C2.90226 4.54541 2.45454 4.09769 2.45454 3.54541Z" fill="#81818A"/>
<path d="M3.45455 19.9091C4.35829 19.9091 5.09091 19.1765 5.09091 18.2727C5.09091 17.369 4.35829 16.6364 3.45455 16.6364C2.55081 16.6364 1.81818 17.369 1.81818 18.2727C1.81818 19.1765 2.55081 19.9091 3.45455 19.9091Z" fill="#81818A"/>
<path d="M16.5455 19.9091C17.4492 19.9091 18.1818 19.1765 18.1818 18.2727C18.1818 17.369 17.4492 16.6364 16.5455 16.6364C15.6417 16.6364 14.9091 17.369 14.9091 18.2727C14.9091 19.1765 15.6417 19.9091 16.5455 19.9091Z" fill="#81818A"/>
<path fill-rule="evenodd" clip-rule="evenodd" d="M0.292893 0.383775C0.683417 -0.00674975 1.31658 -0.00674975 1.70711 0.383775L4.16165 2.83832C4.34919 3.02586 4.45455 3.28021 4.45455 3.54543V11.7272C4.45455 11.8825 4.4184 12.0356 4.34897 12.1745L3.43622 14H19C19.5523 14 20 14.4477 20 15C20 15.5523 19.5523 16 19 16H1.81818C1.4716 16 1.14974 15.8205 0.967531 15.5257C0.785324 15.2309 0.76876 14.8627 0.923755 14.5528L2.45455 11.4912V3.95964L0.292893 1.79799C-0.0976311 1.40746 -0.0976311 0.774299 0.292893 0.383775Z" fill="#81818A"/>
</g>
<defs>
<clipPath id="clip0">
<rect width="20" height="20" fill="white"/>
</clipPath>
</defs>
</svg>
